<?xml version="1.0" encoding="UTF-8"?>
<svg width="150px" height="40px" viewBox="0 0 150 40" version="1.1" xmlns="http://www.w3.org/2000/svg" xmlns:xlink="http://www.w3.org/1999/xlink">
    <g id="Logo" stroke="none" stroke-width="1" fill="none" fill-rule="evenodd">
        <g id="Konduza-Logo">
            <path d="M28.164,7.48 L21.886,14.758 L15.608,7.48 L6.926,7.48 L18.486,20.954 L7.46,33.52 L16.142,33.52 L21.886,26.616 L27.63,33.52 L36.312,33.52 L25.286,20.954 L36.846,7.48 L28.164,7.48 Z" id="K" fill="#4F46E5"></path>
            <path d="M48.312,9.082 C47.244,9.082 46.332,9.388 45.576,10 C44.82,10.612 44.292,11.422 43.992,12.43 L43.992,9.388 L37.5,9.388 L37.5,33.52 L44.462,33.52 L44.462,17.8 C44.462,16.792 44.754,15.994 45.338,15.406 C45.922,14.818 46.71,14.524 47.7,14.524 C48.69,14.524 49.478,14.818 50.062,15.406 C50.646,15.994 50.938,16.792 50.938,17.8 L50.938,33.52 L57.9,33.52 L57.9,17.8 C57.9,16.792 58.192,15.994 58.776,15.406 C59.36,14.818 60.148,14.524 61.138,14.524 C62.128,14.524 62.916,14.818 63.5,15.406 C64.084,15.994 64.376,16.792 64.376,17.8 L64.376,33.52 L71.338,33.52 L71.338,17.12 C71.338,14.524 70.57,12.472 69.034,10.966 C67.498,9.46 65.528,8.708 63.126,8.708 C61.756,8.708 60.526,8.986 59.436,9.544 C58.346,10.102 57.424,10.85 56.67,11.786 C56.166,10.85 55.406,10.102 54.392,9.544 C53.378,8.986 51.932,9.082 48.312,9.082 Z" id="o" fill="#4F46E5"></path>
            <path d="M84.442,8.708 C82.412,8.708 80.61,9.082 79.038,9.832 C77.466,10.582 76.252,11.66 75.398,13.068 C74.544,14.476 74.118,16.106 74.118,17.96 L74.118,24.948 C74.118,26.784 74.544,28.414 75.398,29.84 C76.252,31.266 77.466,32.344 79.038,33.076 C80.61,33.808 82.412,34.174 84.442,34.174 C86.472,34.174 88.274,33.808 89.846,33.076 C91.418,32.344 92.632,31.266 93.486,29.84 C94.34,28.414 94.766,26.784 94.766,24.948 L94.766,17.96 C94.766,16.106 94.34,14.476 93.486,13.068 C92.632,11.66 91.418,10.582 89.846,9.832 C88.274,9.082 86.472,8.708 84.442,8.708 Z M87.804,24.948 C87.804,26.16 87.468,27.084 86.794,27.728 C86.12,28.372 85.414,28.694 84.442,28.694 C83.47,28.694 82.742,28.372 82.086,27.728 C81.43,27.084 81.08,26.16 81.08,24.948 L81.08,17.96 C81.08,16.748 81.43,15.812 82.086,15.168 C82.742,14.524 83.47,14.202 84.442,14.202 C85.414,14.202 86.12,14.524 86.794,15.168 C87.468,15.812 87.804,16.748 87.804,17.96 L87.804,24.948 Z" id="n" fill="#4F46E5"></path>
            <path d="M108.274,8.708 C106.568,8.708 105.012,9.054 103.608,9.748 C102.204,10.442 101.088,11.422 100.252,12.682 C99.416,13.942 98.998,15.392 98.998,17.03 L98.998,25.878 C98.998,27.516 99.416,28.966 100.252,30.226 C101.088,31.486 102.204,32.466 103.608,33.16 C105.012,33.854 106.568,34.2 108.274,34.2 C109.98,34.2 111.526,33.854 112.912,33.16 C114.298,32.466 115.414,31.486 116.268,30.226 C117.122,28.966 117.55,27.516 117.55,25.878 L117.55,22.22 L108.838,22.22 L108.838,27.084 L110.876,27.084 L110.876,25.878 C110.876,26.874 110.504,27.67 109.76,28.27 C109.016,28.87 108.162,29.17 107.152,29.17 C106.142,29.17 105.3,28.87 104.564,28.27 C103.828,27.67 103.46,26.874 103.46,25.878 L103.46,17.03 C103.46,16.034 103.828,15.238 104.564,14.638 C105.3,14.038 106.142,13.738 107.152,13.738 C108.162,13.738 109.016,14.038 109.76,14.638 C110.504,15.238 110.876,16.034 110.876,17.03 L110.876,18.158 L117.55,18.158 L117.55,17.03 C117.55,15.392 117.122,13.942 116.268,12.682 C115.414,11.422 114.298,10.442 112.912,9.748 C111.526,9.054 109.98,8.708 108.274,8.708 Z" id="d" fill="#4F46E5"></path>
            <path d="M131.546,8.734 C129.306,8.734 127.338,9.208 125.642,10.154 C123.946,11.1 122.658,12.444 121.778,14.186 C120.898,15.928 120.458,17.942 120.458,20.228 L120.458,22.674 C120.458,24.96 120.898,26.962 121.778,28.686 C122.658,30.41 123.946,31.744 125.642,32.672 C127.338,33.6 129.306,34.066 131.546,34.066 C133.786,34.066 135.752,33.6 137.448,32.672 C139.144,31.744 140.434,30.41 141.314,28.686 C142.194,26.962 142.634,24.96 142.634,22.674 L142.634,20.228 C142.634,17.942 142.194,15.928 141.314,14.186 C140.434,12.444 139.144,11.1 137.448,10.154 C135.752,9.208 133.786,8.734 131.546,8.734 Z M136.166,22.572 C136.166,25.636 134.626,27.168 131.546,27.168 C128.466,27.168 126.926,25.636 126.926,22.572 L126.926,20.33 C126.926,17.266 128.466,15.734 131.546,15.734 C134.626,15.734 136.166,17.266 136.166,20.33 L136.166,22.572 Z" id="u" fill="#4F46E5"></path>
            <path d="M148.084,9.334 L148.084,33.466 L146.056,33.466 L146.056,9.334 L148.084,9.334 Z M138.412,9.334 L138.412,33.466 L136.384,33.466 L136.384,9.334 L138.412,9.334 Z" id="z" fill="#4F46E5"></path>
            <path d="M17.24,4.636 L13.982,1.378 C13.728,1.123 13.366,1 13,1 C12.634,1 12.272,1.123 12.018,1.378 L8.76,4.636 C8.505,4.89 8.382,5.252 8.382,5.618 C8.382,5.984 8.505,6.346 8.76,6.6 L12.018,9.858 C12.272,10.113 12.634,10.236 13,10.236 C13.366,10.236 13.728,10.113 13.982,9.858 L17.24,6.6 C17.495,6.346 17.618,5.984 17.618,5.618 C17.618,5.252 17.495,4.89 17.24,4.636 Z" id="Diamond-1" fill="#4F46E5"></path>
            <path d="M35,22.618 L31.618,19.236 C31.364,18.981 31.002,18.858 30.636,18.858 C30.27,18.858 29.907,18.981 29.653,19.236 L26.271,22.618 C26.017,22.872 25.894,23.234 25.894,23.6 C25.894,23.966 26.017,24.328 26.271,24.582 L29.653,27.964 C29.907,28.219 30.27,28.342 30.636,28.342 C31.002,28.342 31.364,28.219 31.618,27.964 L35,24.582 C35.255,24.328 35.378,23.966 35.378,23.6 C35.378,23.234 35.255,22.872 35,22.618 Z" id="Diamond-2" fill="#4F46E5"></path>
        </g>
    </g>
</svg>